<?xml version="1.0" standalone="no"?>
<!DOCTYPE svg PUBLIC "-//W3C//DTD SVG 20010904//EN"
 "http://www.w3.org/TR/2001/REC-SVG-20010904/DTD/svg10.dtd">
<svg version="1.0" xmlns="http://www.w3.org/2000/svg"
 width="512.000000pt" height="512.000000pt" viewBox="0 0 512.000000 512.000000"
 preserveAspectRatio="xMidYMid meet">
<metadata>
Created by potrace 1.14, written by Peter Selinger 2001-2017
</metadata>
<g transform="translate(0.000000,512.000000) scale(0.100000,-0.100000)"
fill="#000000" stroke="none">
<path d="M2280 4946 c-998 -127 -1798 -828 -2045 -1790 -57 -223 -70 -332 -70
-596 0 -264 13 -373 70 -596 218 -849 880 -1511 1729 -1729 223 -57 332 -70
596 -70 178 0 263 5 350 18 790 125 1455 609 1800 1312 84 172 131 297 175
469 57 223 70 332 70 596 0 264 -13 373 -70 596 -218 849 -880 1511 -1729
1729 -72 18 -178 41 -236 50 -142 23 -500 29 -640 11z m75 -2083 c110 -425
202 -773 205 -773 3 0 95 348 205 773 l201 772 177 3 177 2 0 -1020 0 -1020
-130 0 -130 0 -2 704 -3 705 -181 -702 -180 -702 -134 0 -134 0 -181 702 -180
702 -3 -704 -2 -705 -130 0 -130 0 0 1020 0 1020 177 -2 177 -3 201 -772z"/>
</g>
</svg>
